<?xml version="1.0" encoding="utf-8"?>
<!-- Generator: Adobe Illustrator 24.1.2, SVG Export Plug-In . SVG Version: 6.00 Build 0)  -->
<svg version="1.1" id="Layer_1" xmlns="http://www.w3.org/2000/svg" xmlns:xlink="http://www.w3.org/1999/xlink" x="0px" y="0px"
	 viewBox="0 0 80 80" style="enable-background:new 0 0 80 80;" xml:space="preserve">
<style type="text/css">
	.st0{fill:#1E319E;}
	.st1{fill:#576FF4;}
	.st2{fill:#F4C84B;}
	.st3{fill:#FF8E16;}
	.st4{fill:#B3C9FF;}
	.st5{fill:#FF8E16;stroke:#CB7619;stroke-width:1.1773;stroke-miterlimit:10;}
	.st6{opacity:0.6;fill:#FF8E16;}
	.st7{fill:#CB7619;}
</style>
<g>
	<g>
		<path class="st5" d="M44.5,72c-1.1-1.8-1.3-3.7-1.1-5.5c0.3-1.8,1.1-3.3,2.2-4.4c0.6-0.5,1.2-0.9,2-1c0.7-0.2,1.5-0.2,2.2-0.1
			c1.6,0.2,3.3,1,4.8,2.4c1.5,1.4,2.5,3.1,2.6,5c0.2,1.8-0.5,3.7-2.1,5.1c-0.8,0.7-1.7,1.2-2.7,1.5c-1,0.3-2,0.4-3,0.2
			C47.4,74.8,45.6,73.7,44.5,72z"/>
	</g>
	<g>
		<path class="st5" d="M54.5,68.8c-1.6-1.3-2.5-3.1-2.8-4.9c-0.2-0.9-0.2-1.8-0.1-2.6c0.1-0.8,0.4-1.6,0.8-2.3
			c0.4-0.7,0.9-1.2,1.5-1.6c0.6-0.4,1.3-0.7,2.1-0.8c1.5-0.3,3.4-0.1,5.3,0.7c1.8,0.8,3.3,2.2,4.1,3.8c0.7,1.7,0.7,3.7-0.3,5.5
			c-1.1,1.8-2.9,3.1-4.9,3.4c-0.5,0.1-1,0.1-1.5,0.1c-0.5,0-1-0.1-1.5-0.2C56.2,69.9,55.3,69.4,54.5,68.8z"/>
	</g>
	<g>
		<path class="st5" d="M63,62.5c-1.9-0.7-3.3-2.1-4.2-3.7c-0.4-0.8-0.7-1.6-0.9-2.4c-0.2-0.8-0.2-1.6,0-2.4c0.3-1.5,1.2-2.7,2.6-3.5
			c0.7-0.4,1.5-0.7,2.4-0.9c0.9-0.2,1.8-0.3,2.8-0.2c2,0.2,3.9,1,5.1,2.3c0.6,0.7,1.1,1.5,1.4,2.4c0.2,0.9,0.3,1.9,0.1,2.9
			c-0.4,2.1-1.7,3.9-3.5,4.8c-0.9,0.5-1.8,0.8-2.8,0.9C64.9,63,63.9,62.9,63,62.5z"/>
	</g>
	<g>
		<path class="st5" d="M68.9,54c-2.1,0-3.9-0.9-5.2-2.1c-1.3-1.2-2.2-2.7-2.4-4.3c-0.1-0.8,0-1.5,0.2-2.2c0.1-0.3,0.3-0.7,0.5-1
			c0.2-0.3,0.4-0.6,0.7-0.9c0.5-0.6,1.2-1.1,2-1.6c0.8-0.5,1.7-0.8,2.6-1.1c2-0.5,4-0.3,5.6,0.5c0.8,0.4,1.5,1,2.1,1.8
			c0.5,0.8,0.9,1.7,1.1,2.7c0.3,2.1-0.4,4.2-1.7,5.7C72.9,53.1,71,54,68.9,54z"/>
	</g>
	<g>
		<path class="st5" d="M71.7,44c-2,0.6-4,0.4-5.6-0.3c-1.7-0.7-3-1.8-3.7-3.3c-0.3-0.7-0.5-1.4-0.5-2.2c0-0.7,0.2-1.5,0.5-2.2
			c0.6-1.4,1.8-2.9,3.5-4c1.7-1.1,3.6-1.6,5.4-1.3c1.8,0.3,3.5,1.4,4.4,3.3c0.9,1.9,1,4.1,0.2,6C75.2,41.9,73.6,43.3,71.7,44z"/>
	</g>
	<g>
		<path class="st5" d="M71,33.5c-1.6,1.2-3.6,1.6-5.4,1.5c-0.9-0.1-1.7-0.3-2.5-0.6c-0.8-0.3-1.4-0.7-2-1.3
			c-1.1-1.1-1.6-2.5-1.5-4.1c0-0.8,0.2-1.6,0.6-2.5c0.3-0.8,0.8-1.7,1.4-2.5c1.3-1.6,2.9-2.7,4.7-3c0.9-0.2,1.8-0.1,2.7,0.2
			c0.9,0.3,1.8,0.8,2.5,1.5c1.5,1.5,2.3,3.6,2.1,5.6c0,1-0.3,2-0.8,2.9C72.5,32.1,71.9,32.9,71,33.5z"/>
	</g>
	<g>
		<path class="st5" d="M67,23.8c-1.1,1.7-2.9,2.7-4.6,3.2c-1.7,0.4-3.5,0.4-4.9-0.3c-1.4-0.7-2.3-1.9-2.7-3.4
			c-0.2-0.8-0.3-1.6-0.3-2.5c0-0.9,0.2-1.8,0.5-2.8c0.7-1.9,1.9-3.5,3.5-4.4c0.8-0.4,1.7-0.7,2.7-0.7c0.9,0,1.9,0.2,2.9,0.6
			c1.9,0.9,3.3,2.6,3.8,4.6C68.5,20,68.2,22.1,67,23.8z"/>
	</g>
	<g>
		<path class="st5" d="M60.2,15.9c-0.5,2-1.8,3.5-3.3,4.5c-1.5,1-3.2,1.5-4.7,1.3c-0.8-0.1-1.5-0.4-2.1-0.7
			c-0.6-0.4-1.1-0.9-1.6-1.6c-0.9-1.3-1.5-3.1-1.5-5.1c0-2,0.6-3.9,1.9-5.3c0.6-0.7,1.4-1.2,2.3-1.6C52,7.1,53,6.9,54,7.1
			c2.1,0.2,4,1.4,5.1,3.1c0.6,0.8,0.9,1.8,1.1,2.7C60.5,13.9,60.4,14.9,60.2,15.9z"/>
	</g>
	<g>
		<path class="st5" d="M51.1,10.7c0.1,2.1-0.6,3.9-1.7,5.3c-1.1,1.4-2.5,2.4-4.1,2.8c-0.8,0.2-1.5,0.2-2.2,0c-0.7-0.1-1.4-0.5-2-1
			c-1.3-1-2.4-2.4-3-4.4c-0.7-1.9-0.7-3.9,0.1-5.6c0.7-1.7,2.2-3,4.3-3.5c1-0.2,2.1-0.2,3.1,0c1,0.3,1.9,0.6,2.7,1.3
			C50,6.8,51,8.6,51.1,10.7z"/>
	</g>
	<g>
		<path class="st5" d="M40.9,8.7c0.8,1.9,0.7,3.9,0.1,5.6c-0.3,0.8-0.7,1.6-1.2,2.3c-0.5,0.7-1.1,1.2-1.8,1.6
			c-0.3,0.2-0.7,0.4-1,0.5c-0.3,0.1-0.7,0.2-1.1,0.2c-0.7,0-1.5,0-2.2-0.3c-0.8-0.2-1.5-0.6-2.2-1.2c-0.7-0.5-1.4-1.2-2.1-2
			c-1.2-1.6-1.9-3.5-1.8-5.3c0.1-1.8,1.1-3.6,2.9-4.7c0.9-0.5,1.9-0.9,2.9-1c1-0.1,2.1,0,3,0.3C38.5,5.4,40.1,6.8,40.9,8.7z"/>
	</g>
	<g>
		<path class="st5" d="M30.5,10.3c1.4,1.5,1.9,3.4,2,5.2c0,0.9-0.1,1.8-0.4,2.6c-0.2,0.8-0.6,1.5-1.1,2.1c-0.5,0.6-1.1,1-1.8,1.4
			C28.6,21.8,27.8,22,27,22c-1.6,0-3.4-0.5-5.1-1.6c-1.7-1.1-2.9-2.7-3.4-4.5c-0.5-1.8-0.1-3.8,1.2-5.4C21.1,8.9,23.2,8,25.2,8
			c1,0,2,0.2,2.9,0.5C29,8.9,29.9,9.5,30.5,10.3z"/>
	</g>
	<g>
		<path class="st5" d="M21.2,15c1.8,1,2.9,2.6,3.6,4.3c0.3,0.8,0.5,1.7,0.5,2.5c0,0.8-0.1,1.6-0.4,2.4c-0.3,0.8-0.7,1.3-1.2,1.8
			c-0.3,0.2-0.6,0.5-0.9,0.6c-0.3,0.2-0.7,0.4-1,0.5c-0.8,0.3-1.6,0.4-2.5,0.5c-0.9,0-1.9-0.1-2.8-0.3c-2-0.5-3.6-1.6-4.7-3.1
			c-0.5-0.8-0.8-1.6-0.9-2.6c-0.1-0.9,0-1.9,0.4-2.9c0.7-2,2.4-3.5,4.2-4.2c1-0.3,2-0.5,2.9-0.4C19.3,14.3,20.3,14.5,21.2,15z"/>
	</g>
	<g>
		<path class="st5" d="M13.9,22.5c2,0.4,3.6,1.5,4.8,2.9c1.1,1.4,1.7,3,1.7,4.6c0,1.6-0.8,2.8-2,3.9c-1.2,1-2.9,1.7-5,1.9
			c-2,0.2-3.9-0.3-5.4-1.4c-1.4-1.1-2.4-2.9-2.3-5c0-1.1,0.3-2.1,0.8-3c0.5-0.9,1.1-1.7,1.9-2.4C9.8,22.7,11.9,22.2,13.9,22.5z"/>
	</g>
	<g>
		<path class="st5" d="M9.4,32c2-0.3,4,0.3,5.5,1.2c0.7,0.5,1.4,1.1,1.9,1.7c0.5,0.6,0.9,1.3,1.2,2.1c0.4,1.5,0.2,3-0.7,4.3
			c-0.8,1.3-2.2,2.6-4.1,3.4c-1.9,0.8-3.9,1-5.6,0.4c-1.7-0.6-3.2-2-3.8-4c-0.3-1-0.4-2.1-0.2-3.1c0.1-0.5,0.2-1,0.4-1.5
			c0.2-0.5,0.4-0.9,0.7-1.4c0.5-0.9,1.2-1.6,2.1-2.1C7.5,32.5,8.4,32.1,9.4,32z"/>
	</g>
	<g>
		<path class="st5" d="M8.4,42.3c1.8-0.9,3.8-1,5.6-0.6c0.9,0.2,1.7,0.5,2.4,1c0.7,0.4,1.3,1,1.8,1.6c1,1.3,1.1,2.7,0.8,4.3
			c-0.2,0.8-0.5,1.6-1,2.3c-0.5,0.8-1.1,1.5-1.8,2.2c-1.5,1.4-3.3,2.2-5.2,2.2c-0.9,0-1.8-0.2-2.7-0.6c-0.8-0.4-1.6-1.1-2.3-1.9
			c-1.3-1.7-1.6-3.9-1.2-5.9c0.2-1,0.7-1.9,1.3-2.7C6.7,43.5,7.5,42.8,8.4,42.3z"/>
	</g>
	<g>
		<path class="st5" d="M10.7,52.6c1.4-1.5,3.3-2.2,5.1-2.4c1.8-0.2,3.5,0.2,4.8,1.1c1.3,0.9,2,2.2,2.1,3.8c0,0.4,0,0.8,0,1.2
			c0,0.4-0.1,0.8-0.2,1.3c-0.2,0.9-0.5,1.8-1,2.7c-1,1.8-2.4,3.1-4.2,3.7c-0.9,0.3-1.8,0.4-2.7,0.3c-0.9-0.1-1.9-0.5-2.7-1.1
			c-0.9-0.6-1.6-1.4-2.1-2.3C9.3,60,9,59.1,8.9,58.1C8.7,56,9.3,54,10.7,52.6z"/>
	</g>
	<g>
		<path class="st5" d="M16.2,61.5c0.9-1.9,2.4-3.2,4-3.9c1.7-0.7,3.4-0.9,4.9-0.5c0.8,0.2,1.4,0.6,1.9,1.1c0.6,0.5,1,1.1,1.3,1.8
			c0.6,1.4,0.9,3.3,0.6,5.3c-0.3,2-1.3,3.8-2.7,4.9c-1.4,1.1-3.4,1.6-5.4,1c-1-0.3-1.9-0.8-2.7-1.5c-0.8-0.7-1.4-1.5-1.8-2.4
			C15.4,65.5,15.4,63.3,16.2,61.5z"/>
	</g>
	<g>
		<path class="st5" d="M24.3,68.1c0.2-2.1,1.2-3.8,2.5-5c0.6-0.6,1.4-1.1,2.1-1.5c0.4-0.2,0.8-0.3,1.1-0.4c0.4-0.1,0.8-0.2,1.2-0.2
			c1.6-0.1,2.9,0.5,4,1.7c0.6,0.6,1,1.3,1.4,2.1c0.4,0.8,0.7,1.7,0.9,2.7c0.3,2,0,4-1,5.5c-0.5,0.8-1.2,1.4-2,1.9
			c-0.8,0.5-1.8,0.8-2.8,0.8c-2.1,0.1-4.2-0.7-5.6-2.2c-0.7-0.7-1.2-1.6-1.6-2.5C24.3,70.2,24.2,69.2,24.3,68.1z"/>
	</g>
</g>
<path class="st3" d="M40.2,10.9C24,10.9,10.9,24,10.9,40.2c0,16.2,13.1,29.3,29.3,29.3s29.3-13.1,29.3-29.3
	C69.5,24,56.4,10.9,40.2,10.9z M40.3,68.3c0,0-4.6-8.2-4.6-12.8c0-0.8,0.8-1.5,1.9-1.7c1.3-0.2,2.9-0.5,5.5,0.1
	c0.6,0.1,1.3,0.6,1.3,1.9C44.3,59.1,42.2,65.4,40.3,68.3z"/>
<path class="st6" d="M40.2,69.5c16.2,0,29.3-13.1,29.3-29.3c0-2.8-0.4-5.5-1.1-8.1C53.1,44.6,33.5,52,13.6,52.6
	C18.3,62.6,28.4,69.5,40.2,69.5z M37.6,53.8c1.3-0.2,2.9-0.5,5.5,0.1c0.6,0.1,1.3,0.6,1.3,1.9c-0.1,3.3-2.2,9.6-4.1,12.5
	c0,0-4.6-8.2-4.6-12.8C35.7,54.7,36.5,54,37.6,53.8z"/>
<g>
	<g>
		<g>
			<path class="st7" d="M48.1,67.9c6.6-2.1,12.4-6.6,15.9-12.4c3.6-5.8,5-12.9,3.8-19.6c-0.6-3.3-1.7-6.6-3.4-9.5
				c-1.7-2.9-3.9-5.6-6.5-7.7c-5.2-4.3-12-6.6-18.7-6.3c-6.7,0.1-13.4,2.8-18.3,7.4c-5,4.6-8.1,11-8.9,17.7
				c-0.4,3.4-0.1,6.8,0.7,10.1c0.9,3.3,2.3,6.4,4.3,9.2c3.9,5.6,9.9,9.8,16.6,11.5c0.3,0.1,0.4,0.3,0.3,0.6
				c-0.1,0.2-0.3,0.4-0.5,0.3c-7.1-1.4-13.5-5.5-17.9-11.3c-2.2-2.9-3.8-6.2-4.8-9.7c-1-3.5-1.3-7.2-1-10.9
				c0.6-7.3,4.1-14.4,9.4-19.4c5.3-5.1,12.6-8.2,20-8.3c7.4-0.2,14.8,2.4,20.5,7.1c5.7,4.7,9.5,11.6,10.5,18.9
				c1.1,7.3-0.6,14.9-4.6,20.9c-4.1,6-10.3,10.6-17.3,12.3c-0.3,0.1-0.5-0.1-0.6-0.3C47.7,68.2,47.9,68,48.1,67.9z"/>
			<path class="st7" d="M40.3,68.7c-0.1,0-0.3-0.1-0.4-0.2c0,0-0.1-0.1-0.1-0.1l0,0l-0.1-0.1L39.6,68l-0.3-0.5l-0.6-1
				c-0.4-0.7-0.8-1.4-1.2-2.1c-0.8-1.4-1.5-2.9-2-4.4c-0.3-0.8-0.5-1.6-0.7-2.4c-0.1-0.4-0.2-0.8-0.2-1.3l-0.1-0.7
				c0-0.1,0-0.3,0-0.5c0-0.2,0.1-0.4,0.1-0.6c0.6-1.5,1.9-2,2.9-2.1c0.8-0.1,1.7-0.3,2.6-0.3c0.9,0,1.8,0.1,2.6,0.2
				c0.2,0,0.4,0.1,0.6,0.1c0.2,0,0.6,0.1,0.9,0.3c0.7,0.3,1.2,1,1.4,1.6c0.2,0.6,0.2,1.3,0.2,1.7c0,0.5-0.1,0.9-0.2,1.3
				c-0.1,0.8-0.3,1.6-0.6,2.4c-0.5,1.6-1,3.1-1.7,4.6c-0.4,0.7-0.7,1.5-1.1,2.2c-0.2,0.3-0.4,0.7-0.7,1l-0.4,0.6
				C40.9,68.4,40.5,68.6,40.3,68.7z M40.3,67.8c0-0.2-0.1-0.3-0.1-0.4c0,0,0-0.1,0.1-0.2l0.1-0.3c0.1-0.4,0.3-0.7,0.4-1.1
				c0.3-0.7,0.5-1.5,0.7-2.2c0.5-1.5,0.8-3,1.1-4.5c0.1-0.7,0.3-1.5,0.3-2.2c0.1-0.7,0.1-1.6,0-1.7c-0.1-0.1,0-0.1-0.1-0.1
				c0,0-0.5-0.1-0.8-0.2c-0.7-0.1-1.4-0.2-2.1-0.2c-0.7,0-1.4,0.1-2.1,0.2c-0.5,0-0.8,0.3-0.8,0.4c0,0,0,0,0,0s0,0,0,0.1l0,0.5
				c0,0.3,0.1,0.7,0.1,1c0.1,0.7,0.3,1.4,0.5,2.2c0.4,1.5,0.9,2.9,1.4,4.4c0.3,0.7,0.5,1.5,0.8,2.2l0.4,1.1l0.2,0.5l0.1,0.3l0.1,0.1
				l0,0c0,0,0-0.1-0.1-0.1C40.5,67.8,40.4,67.8,40.3,67.8z"/>
		</g>
	</g>
	<g>
		<path class="st7" d="M27.4,57.8c1.4-2,3.4-3.3,5.6-4.3c2.2-0.9,4.6-1.4,6.9-1.5c1.2,0,2.4,0,3.5,0.2c1.2,0.2,2.4,0.4,3.5,0.9
			c2.2,0.8,4.4,2.2,5.6,4.4c0.1,0.2,0,0.5-0.2,0.6c-0.2,0.1-0.4,0.1-0.5,0L51.7,58c-1.6-1.2-3.6-2-5.6-2.4c-2-0.4-4.1-0.5-6.1-0.5
			c-2.1,0.1-4.1,0.3-6.1,0.9c-2,0.5-4,1.3-5.8,2.4l-0.1,0c-0.2,0.1-0.5,0.1-0.7-0.2C27.3,58.2,27.3,58,27.4,57.8z"/>
	</g>
	<g>
		<path class="st7" d="M45.2,53.5c0.3,0.6,0.6,1.2,0.8,1.8c0.2,0.6,0.5,1.2,0.7,1.8c0.4,1.2,0.7,2.5,0.8,3.8c0,0.3-0.2,0.6-0.5,0.6
			c-0.3,0-0.6-0.2-0.6-0.5l0,0c-0.2-1.1-0.6-2.3-1.1-3.4c-0.2-0.6-0.5-1.1-0.8-1.6c-0.3-0.5-0.6-1.1-0.9-1.6l0,0
			c-0.3-0.4-0.2-1,0.3-1.3C44.2,52.9,44.8,53,45.2,53.5C45.1,53.5,45.1,53.5,45.2,53.5z"/>
	</g>
	<g>
		<path class="st7" d="M37.1,54.5c-0.3,0.5-0.6,1-0.9,1.6c-0.3,0.5-0.6,1.1-0.8,1.6c-0.5,1.1-0.9,2.2-1.1,3.4l0,0
			c-0.1,0.3-0.3,0.5-0.7,0.5c-0.3,0-0.5-0.3-0.5-0.6c0.1-1.3,0.4-2.6,0.8-3.8c0.2-0.6,0.4-1.2,0.7-1.8c0.2-0.6,0.5-1.2,0.8-1.8
			c0.2-0.5,0.8-0.7,1.3-0.4S37.3,53.9,37.1,54.5C37.1,54.4,37.1,54.4,37.1,54.5L37.1,54.5z"/>
	</g>
</g>
<g>
	<path class="st2" d="M59.4,30.7c0,0.7-0.6,1.3-1.3,1.3c-0.7,0-1.3-0.6-1.3-1.3c0-0.7,0.6-1.3,1.3-1.3C58.9,29.4,59.4,30,59.4,30.7z
		"/>
	<path class="st2" d="M24.9,47.1c0,0.7-0.6,1.3-1.3,1.3c-0.7,0-1.3-0.6-1.3-1.3s0.6-1.3,1.3-1.3C24.3,45.7,24.9,46.3,24.9,47.1z"/>
	<circle class="st2" cx="57.9" cy="34.4" r="1.2"/>
	<circle class="st2" cx="28.4" cy="47.3" r="1.2"/>
	<circle class="st2" cx="58.5" cy="47.1" r="1.2"/>
	<circle class="st2" cx="30" cy="24.5" r="1.2"/>
	<path class="st2" d="M55.4,30.9c0.3,0.3,0.3,0.8,0,1.1c-0.3,0.3-0.8,0.3-1.1,0c-0.3-0.3-0.3-0.8,0-1.1
		C54.6,30.6,55.1,30.6,55.4,30.9z"/>
	<circle class="st2" cx="25.8" cy="43.9" r="0.8"/>
	<circle class="st2" cx="27.4" cy="27.2" r="0.8"/>
	<circle class="st2" cx="35.5" cy="33.5" r="0.8"/>
	<circle class="st2" cx="44" cy="23.5" r="0.8"/>
	<path class="st2" d="M55.2,45c0.3,0.3,0.3,0.8,0,1.1c-0.3,0.3-0.8,0.3-1.1,0c-0.3-0.3-0.3-0.8,0-1.1C54.4,44.6,54.9,44.6,55.2,45z"
		/>
</g>
</svg>
