<?xml version="1.0" encoding="utf-8"?>
<!-- Generator: Adobe Illustrator 24.1.2, SVG Export Plug-In . SVG Version: 6.00 Build 0)  -->
<svg version="1.1" id="Layer_1" xmlns="http://www.w3.org/2000/svg" xmlns:xlink="http://www.w3.org/1999/xlink" x="0px" y="0px"
	 viewBox="0 0 80 80" style="enable-background:new 0 0 80 80;" xml:space="preserve">
<style type="text/css">
	.st0{fill:#1E319E;}
	.st1{fill:#576FF4;}
	.st2{fill:#F4C84B;}
	.st3{fill:#FF8E16;}
	.st4{fill:#B3C9FF;}
</style>
<g>
	<g>
		
			<ellipse transform="matrix(0.6533 -0.7571 0.7571 0.6533 -13.7687 37.7292)" class="st3" cx="34.3" cy="33.9" rx="16.5" ry="16.5"/>
		<g>
			<path class="st3" d="M34.3,13c-1.1,0-2.1-0.9-2.1-2.1v-9c0-1.1,0.9-2.1,2.1-2.1c1.1,0,2.1,0.9,2.1,2.1v9
				C36.4,12.1,35.5,13,34.3,13z"/>
		</g>
		<g>
			<path class="st3" d="M11.1,36.2h-9c-1.1,0-2.1-0.9-2.1-2.1c0-1.1,0.9-2.1,2.1-2.1h9c1.1,0,2.1,0.9,2.1,2.1
				C13.2,35.3,12.2,36.2,11.1,36.2z"/>
		</g>
		<g>
			<path class="st3" d="M17.9,19.8c-0.5,0-1.1-0.2-1.5-0.6l-6.4-6.4c-0.8-0.8-0.8-2.1,0-2.9c0.8-0.8,2.1-0.8,2.9,0l6.4,6.4
				c0.8,0.8,0.8,2.1,0,2.9C19,19.6,18.4,19.8,17.9,19.8z"/>
		</g>
		<g>
			<path class="st3" d="M11.5,59c-0.5,0-1.1-0.2-1.5-0.6c-0.8-0.8-0.8-2.1,0-2.9l6.4-6.4c0.8-0.8,2.1-0.8,2.9,0
				c0.8,0.8,0.8,2.1,0,2.9L13,58.4C12.6,58.8,12,59,11.5,59z"/>
		</g>
		<g>
			<path class="st3" d="M50.7,19.8c-0.5,0-1.1-0.2-1.5-0.6c-0.8-0.8-0.8-2.1,0-2.9l6.4-6.4c0.8-0.8,2.1-0.8,2.9,0
				c0.8,0.8,0.8,2.1,0,2.9l-6.4,6.4C51.8,19.6,51.3,19.8,50.7,19.8z"/>
		</g>
	</g>
	<path class="st1" d="M63.6,47.2C63.6,47.2,63.6,47.2,63.6,47.2c0-0.1,0-0.3,0-0.4c0-11.2-9.1-20.3-20.3-20.3
		C32.1,26.5,23,35.6,23,46.8c0,0,0,0,0,0c-8.8,0.4-15.8,7.7-15.8,16.6c0,9.2,7.4,16.6,16.6,16.6h39.8c9,0,16.4-7.3,16.4-16.4
		C80,54.6,72.7,47.2,63.6,47.2z"/>
</g>
</svg>
