<?xml version="1.0" encoding="utf-8"?>
<!-- Generator: Adobe Illustrator 24.1.2, SVG Export Plug-In . SVG Version: 6.00 Build 0)  -->
<svg version="1.1" id="Layer_1" xmlns="http://www.w3.org/2000/svg" xmlns:xlink="http://www.w3.org/1999/xlink" x="0px" y="0px"
	 viewBox="0 0 80 80" style="enable-background:new 0 0 80 80;" xml:space="preserve">
<style type="text/css">
	.st0{fill:#1E319E;}
	.st1{fill:#576FF4;}
	.st2{fill:#F4C84B;}
	.st3{fill:#FF8E16;}
	.st4{fill:#B3C9FF;}
</style>
<g>
	<path class="st1" d="M62,23.3C62,23.3,62,23.3,62,23.3c0-0.2,0-0.3,0-0.5C62,10.2,52,0,39.7,0C27.4,0,17.4,10.2,17.4,22.8
		c0,0,0,0,0,0C7.7,23.3,0,31.4,0,41.4C0,51.7,8.2,60,18.2,60H62c9.9,0,18-8.2,18-18.4C80,31.5,71.9,23.3,62,23.3z"/>
	<g>
		<g>
			<path class="st4" d="M13.7,49.8c-0.9,0-1.5-0.7-1.5-1.6V37.7c0-0.9,0.7-1.6,1.5-1.6c0.9,0,1.5,0.7,1.5,1.6v10.5
				C15.3,49.1,14.6,49.8,13.7,49.8z"/>
		</g>
		<g>
			<path class="st4" d="M13.7,80c-0.9,0-1.5-0.7-1.5-1.6V56.8c0-0.9,0.7-1.6,1.5-1.6c0.9,0,1.5,0.7,1.5,1.6v21.6
				C15.3,79.3,14.6,80,13.7,80z"/>
		</g>
		<g>
			<path class="st4" d="M26.9,43.8c-0.9,0-1.5-0.7-1.5-1.6V26.9c0-0.9,0.7-1.6,1.5-1.6c0.9,0,1.5,0.7,1.5,1.6v15.3
				C28.4,43.1,27.7,43.8,26.9,43.8z"/>
		</g>
		<g>
			<path class="st4" d="M26.9,61.5c-0.9,0-1.5-0.7-1.5-1.6v-10c0-0.9,0.7-1.6,1.5-1.6c0.9,0,1.5,0.7,1.5,1.6v10
				C28.4,60.7,27.7,61.5,26.9,61.5z"/>
		</g>
		<g>
			<path class="st4" d="M26.9,80c-0.9,0-1.5-0.7-1.5-1.6v-8c0-0.9,0.7-1.6,1.5-1.6c0.9,0,1.5,0.7,1.5,1.6v8
				C28.4,79.3,27.7,80,26.9,80z"/>
		</g>
		<g>
			<path class="st4" d="M40,80c-0.9,0-1.5-0.7-1.5-1.6V56.8c0-0.9,0.7-1.6,1.5-1.6c0.9,0,1.5,0.7,1.5,1.6v21.6
				C41.5,79.3,40.9,80,40,80z"/>
		</g>
		<g>
			<path class="st4" d="M53.1,80c-0.9,0-1.5-0.7-1.5-1.6v-8c0-0.9,0.7-1.6,1.5-1.6c0.9,0,1.5,0.7,1.5,1.6v8C54.7,79.3,54,80,53.1,80
				z"/>
		</g>
		<g>
			<path class="st4" d="M66.3,80c-0.9,0-1.5-0.7-1.5-1.6V61.9c0-0.9,0.7-1.6,1.5-1.6c0.9,0,1.5,0.7,1.5,1.6v16.5
				C67.8,79.3,67.1,80,66.3,80z"/>
		</g>
		<g>
			<path class="st4" d="M66.3,52.8c-0.9,0-1.5-0.7-1.5-1.6v-7.5c0-0.9,0.7-1.6,1.5-1.6c0.9,0,1.5,0.7,1.5,1.6v7.5
				C67.8,52.1,67.1,52.8,66.3,52.8z"/>
		</g>
		<g>
			<path class="st4" d="M53.1,65.4c-0.9,0-1.5-0.7-1.5-1.6V31.7c0-0.9,0.7-1.6,1.5-1.6c0.9,0,1.5,0.7,1.5,1.6v32.1
				C54.7,64.7,54,65.4,53.1,65.4z"/>
		</g>
		<g>
			<path class="st4" d="M40,49.3c-0.9,0-1.5-0.7-1.5-1.6v-9.5c0-0.9,0.7-1.6,1.5-1.6c0.9,0,1.5,0.7,1.5,1.6v9.5
				C41.5,48.6,40.9,49.3,40,49.3z"/>
		</g>
	</g>
</g>
</svg>
