<?xml version="1.0" encoding="utf-8"?>
<!-- Generator: Adobe Illustrator 24.1.2, SVG Export Plug-In . SVG Version: 6.00 Build 0)  -->
<svg version="1.1" id="Layer_1" xmlns="http://www.w3.org/2000/svg" xmlns:xlink="http://www.w3.org/1999/xlink" x="0px" y="0px"
	 viewBox="0 0 80 80" style="enable-background:new 0 0 80 80;" xml:space="preserve">
<style type="text/css">
	.st0{fill:#B3C9FF;}
	.st1{fill:#576FF4;}
	.st2{fill:#F4C84B;}
</style>
<g>
	<path class="st0" d="M53.9,58.5l-5.1,10.9c-1.1,2.4-1.2,5.2,0.1,7.5c0.9,1.6,2.4,3.1,5,3.1s4.1-1.4,5-3.1c1.3-2.3,1.2-5.1,0.1-7.5
		L53.9,58.5z"/>
	<path class="st1" d="M62,20.6L62,20.6c0-0.1,0-0.3,0-0.4C62,9,52,0,39.7,0S17.4,9,17.4,20.1l0,0C7.7,20.6,0,27.8,0,36.6
		C0,45.7,8.2,53,18.2,53H62c9.9,0,18-7.3,18-16.2C80,27.8,71.9,20.6,62,20.6z"/>
	<polygon class="st2" points="53.9,48.1 33.9,48.1 44.1,30.1 33.9,30.1 19.5,56 35,56 28.8,79.4 	"/>
</g>
</svg>
