<?xml version="1.0" encoding="utf-8"?>
<!-- Generator: Adobe Illustrator 24.1.2, SVG Export Plug-In . SVG Version: 6.00 Build 0)  -->
<svg version="1.1" id="Layer_1" xmlns="http://www.w3.org/2000/svg" xmlns:xlink="http://www.w3.org/1999/xlink" x="0px" y="0px"
	 viewBox="0 0 80 80" style="enable-background:new 0 0 80 80;" xml:space="preserve">
<style type="text/css">
	.st0{fill:#82D2EC;}
	.st1{fill:#42BFEC;}
	.st2{fill:#F4C84B;}
	.st3{fill:#FF8E16;}
	.st4{fill:#ADE0F3;}
	.st5{fill:#2EAFD2;}
</style>
<g>
	
		<ellipse transform="matrix(0.9972 -7.476752e-02 7.476752e-02 0.9972 -2.8588 3.1019)" class="st3" cx="40" cy="39.7" rx="19.2" ry="19.2"/>
	<g>
		<path class="st3" d="M40,15.4c-1.3,0-2.4-1.1-2.4-2.4V2.4C37.6,1.1,38.7,0,40,0c1.3,0,2.4,1.1,2.4,2.4v10.5
			C42.4,14.3,41.3,15.4,40,15.4z"/>
	</g>
	<g>
		<path class="st3" d="M40,80c-1.3,0-2.4-1.1-2.4-2.4V67.1c0-1.3,1.1-2.4,2.4-2.4c1.3,0,2.4,1.1,2.4,2.4v10.5
			C42.4,78.9,41.3,80,40,80z"/>
	</g>
	<g>
		<path class="st3" d="M77.6,42.4H67.1c-1.3,0-2.4-1.1-2.4-2.4c0-1.3,1.1-2.4,2.4-2.4h10.5c1.3,0,2.4,1.1,2.4,2.4
			C80,41.3,78.9,42.4,77.6,42.4z"/>
	</g>
	<g>
		<path class="st3" d="M2.4,42.4h10.5c1.3,0,2.4-1.1,2.4-2.4c0-1.3-1.1-2.4-2.4-2.4H2.4C1.1,37.6,0,38.7,0,40
			C0,41.3,1.1,42.4,2.4,42.4z"/>
	</g>
	<g>
		<path class="st3" d="M20.9,23.3c-0.6,0-1.2-0.2-1.7-0.7l-7.4-7.4c-0.9-0.9-0.9-2.5,0-3.4c0.9-0.9,2.5-0.9,3.4,0l7.4,7.4
			c0.9,0.9,0.9,2.5,0,3.4C22.1,23,21.5,23.3,20.9,23.3z"/>
	</g>
	<g>
		<path class="st3" d="M66.6,69c-0.6,0-1.2-0.2-1.7-0.7l-7.4-7.4c-0.9-0.9-0.9-2.5,0-3.4c0.9-0.9,2.5-0.9,3.4,0l7.4,7.4
			c0.9,0.9,0.9,2.5,0,3.4C67.8,68.8,67.2,69,66.6,69z"/>
	</g>
	<g>
		<path class="st3" d="M13.4,69c-0.6,0-1.2-0.2-1.7-0.7c-0.9-0.9-0.9-2.5,0-3.4l7.4-7.4c0.9-0.9,2.5-0.9,3.4,0
			c0.9,0.9,0.9,2.5,0,3.4l-7.4,7.4C14.7,68.8,14,69,13.4,69z"/>
	</g>
	<g>
		<path class="st3" d="M59.1,23.3c-0.6,0-1.2-0.2-1.7-0.7c-0.9-0.9-0.9-2.5,0-3.4l7.4-7.4c0.9-0.9,2.5-0.9,3.4,0
			c0.9,0.9,0.9,2.5,0,3.4l-7.4,7.4C60.4,23,59.8,23.3,59.1,23.3z"/>
	</g>
</g>
</svg>
